<svg width="161" height="46" viewBox="0 0 161 46" fill="none" xmlns="http://www.w3.org/2000/svg">
<path d="M83 0C79.0444 0 75.1776 1.34893 71.8886 3.8762C68.5996 6.40347 66.0362 9.99558 64.5224 14.1983C63.0087 18.401 62.6126 23.0255 63.3843 27.4871C64.156 31.9486 66.0608 36.0468 68.8579 39.2634C71.6549 42.48 75.2186 44.6706 79.0982 45.5581C82.9778 46.4455 86.9992 45.99 90.6537 44.2492C94.3082 42.5084 97.4318 39.5604 99.6294 35.7781C101.827 31.9958 103 27.549 103 23C103 19.9796 102.483 16.9888 101.478 14.1983C100.473 11.4078 98.9993 8.87229 97.1421 6.73654C95.285 4.6008 93.0802 2.90662 90.6537 1.75077C88.2272 0.594909 85.6264 -4.82004e-07 83 0V0ZM92.8842 17.1666C92.8948 17.415 92.9 17.6694 92.9 17.9238C92.9 25.6834 87.7696 34.6304 78.3779 34.6304C75.6069 34.6373 72.8942 33.7154 70.5716 31.9772C70.9754 32.0329 71.3817 32.0612 71.7884 32.062C74.0863 32.0667 76.3185 31.1811 78.1251 29.5481C77.06 29.525 76.028 29.1197 75.1732 28.3887C74.3184 27.6577 73.6838 26.6377 73.3581 25.4714C73.6737 25.5446 73.9948 25.5811 74.3167 25.5805C74.7704 25.5804 75.2221 25.5111 75.6599 25.3745C74.505 25.106 73.4664 24.3862 72.7204 23.3373C71.9744 22.2884 71.5669 20.975 71.5672 19.6199V19.5472C72.2761 20.0055 73.0718 20.2571 73.8848 20.2802C72.803 19.4508 72.0367 18.1784 71.7422 16.7221C71.4476 15.2658 71.6468 13.7351 72.2993 12.4418C73.5783 14.2569 75.1757 15.7416 76.9873 16.7989C78.7989 17.8562 80.784 18.4625 82.813 18.578C82.7236 18.1393 82.6794 17.69 82.6813 17.2393C82.6801 16.0623 82.9871 14.9121 83.5621 13.9384C84.1372 12.9647 84.9538 12.2127 85.9056 11.78C86.8575 11.3474 87.9005 11.2543 88.899 11.5127C89.8976 11.7712 90.8053 12.3693 91.5042 13.2293C92.6471 12.9724 93.743 12.4908 94.7436 11.8058C94.363 13.1653 93.5655 14.3193 92.4997 15.0526C93.5104 14.9116 94.4973 14.5993 95.4284 14.1258C94.7441 15.3051 93.8826 16.3348 92.8842 17.1666V17.1666Z" fill="black"/>
<path d="M144.5 30C148.09 30 151 26.866 151 23C151 19.134 148.09 16 144.5 16C140.91 16 138 19.134 138 23C138 26.866 140.91 30 144.5 30Z" fill="black"/>
<path d="M153 6H137C134.88 6.00677 132.849 6.93082 131.35 8.5703C129.851 10.2098 129.006 12.4314 129 14.75V32.25C129.006 34.5686 129.851 36.7902 131.35 38.4297C132.849 40.0692 134.88 40.9932 137 41H153C155.12 40.9932 157.151 40.0691 158.65 38.4296C160.149 36.7902 160.994 34.5685 161 32.25V14.75C160.994 12.4315 160.149 10.2098 158.65 8.57036C157.151 6.93089 155.12 6.00682 153 6H153ZM145 34C143.101 34 141.245 33.3842 139.667 32.2304C138.088 31.0767 136.857 29.4368 136.131 27.5182C135.404 25.5995 135.214 23.4883 135.584 21.4515C135.955 19.4147 136.869 17.5438 138.212 16.0754C139.554 14.6069 141.265 13.6069 143.127 13.2018C144.989 12.7966 146.92 13.0046 148.674 13.7993C150.428 14.594 151.927 15.9398 152.982 17.6665C154.037 19.3932 154.6 21.4233 154.6 23.5C154.599 26.2846 153.588 28.9549 151.787 30.9238C149.987 32.8928 147.546 33.9993 145 34V34ZM155.4 14.75C154.925 14.75 154.461 14.596 154.067 14.3076C153.672 14.0191 153.364 13.6092 153.183 13.1295C153.001 12.6499 152.953 12.1221 153.046 11.6129C153.139 11.1037 153.367 10.6359 153.703 10.2688C154.039 9.90171 154.466 9.65171 154.932 9.55043C155.397 9.44915 155.88 9.50114 156.318 9.69982C156.757 9.89851 157.132 10.235 157.396 10.6667C157.659 11.0983 157.8 11.6059 157.8 12.125C157.801 12.47 157.739 12.8117 157.619 13.1306C157.499 13.4494 157.322 13.7391 157.099 13.9831C156.876 14.227 156.611 14.4203 156.319 14.5519C156.028 14.6835 155.715 14.7508 155.4 14.75V14.75Z" fill="black"/>
<path d="M18.5 0C14.8411 0 11.2643 1.2023 8.22196 3.45487C5.17965 5.70744 2.80845 8.9091 1.40823 12.655C0.00801127 16.4009 -0.358344 20.5227 0.355482 24.4993C1.06931 28.476 2.83127 32.1287 5.41854 34.9957C8.00581 37.8627 11.3022 39.8151 14.8908 40.6061C18.4795 41.3971 22.1992 40.9911 25.5797 39.4395C28.9601 37.8879 31.8494 35.2604 33.8822 31.8892C35.915 28.518 37 24.5545 37 20.5C37 17.8079 36.5215 15.1422 35.5918 12.655C34.6621 10.1678 33.2994 7.90791 31.5815 6.00431C29.8636 4.10071 27.8242 2.59069 25.5797 1.56047C23.3351 0.530248 20.9295 0 18.5 0V0ZM24.3333 12.4043H21.9651C20.3483 12.4043 20.0397 13.2518 20.0397 14.5007V17.1547H23.8905L23.3873 21.3177H20.0397V32.6175H15.7461V21.3177H12.6667V17.1547H15.7461V14.077C15.7461 10.3897 18.0539 8.38254 21.0259 8.38254C22.4482 8.38254 23.9778 8.50148 24.3333 8.55352L24.3333 12.4043Z" fill="black"/>
</svg>
